<svg xmlns="http://www.w3.org/2000/svg" width="21" height="20" viewBox="0 0 21 20" fill="none">
<path d="M10.5 1.04169C10.8452 1.04169 11.125 1.32151 11.125 1.66669V2.50002C11.125 2.8452 10.8452 3.12502 10.5 3.12502C10.1548 3.12502 9.87502 2.8452 9.87502 2.50002V1.66669C9.87502 1.32151 10.1548 1.04169 10.5 1.04169Z" fill="black"/>
<path fill-rule="evenodd" clip-rule="evenodd" d="M5.70835 10C5.70835 7.35366 7.85366 5.20835 10.5 5.20835C13.1464 5.20835 15.2917 7.35366 15.2917 10C15.2917 12.6464 13.1464 14.7917 10.5 14.7917C7.85366 14.7917 5.70835 12.6464 5.70835 10ZM10.5 6.45835C8.54401 6.45835 6.95835 8.04401 6.95835 10C6.95835 11.956 8.54401 13.5417 10.5 13.5417C12.456 13.5417 14.0417 11.956 14.0417 10C14.0417 8.04401 12.456 6.45835 10.5 6.45835Z" fill="black"/>
<path d="M5.04942 3.66554C4.80534 3.42146 4.40961 3.42146 4.16553 3.66554C3.92146 3.90962 3.92146 4.30535 4.16553 4.54942L4.75479 5.13868C4.99887 5.38276 5.3946 5.38276 5.63867 5.13868C5.88275 4.8946 5.88275 4.49887 5.63867 4.2548L5.04942 3.66554Z" fill="black"/>
<path d="M19.4584 10C19.4584 10.3452 19.1785 10.625 18.8334 10.625H18C17.6548 10.625 17.375 10.3452 17.375 10C17.375 9.65484 17.6548 9.37502 18 9.37502H18.8334C19.1785 9.37502 19.4584 9.65484 19.4584 10Z" fill="black"/>
<path d="M16.8345 4.54942C17.0786 4.30534 17.0786 3.90961 16.8345 3.66553C16.5904 3.42146 16.1947 3.42146 15.9506 3.66553L15.3614 4.25479C15.1173 4.49887 15.1173 4.8946 15.3614 5.13867C15.6054 5.38275 16.0012 5.38275 16.2452 5.13867L16.8345 4.54942Z" fill="black"/>
<path d="M10.5 16.875C10.8452 16.875 11.125 17.1548 11.125 17.5V18.3334C11.125 18.6785 10.8452 18.9584 10.5 18.9584C10.1548 18.9584 9.87502 18.6785 9.87502 18.3334V17.5C9.87502 17.1548 10.1548 16.875 10.5 16.875Z" fill="black"/>
<path d="M16.2453 14.8614C16.0012 14.6173 15.6055 14.6173 15.3614 14.8614C15.1173 15.1055 15.1173 15.5012 15.3614 15.7453L15.9507 16.3345C16.1947 16.5786 16.5905 16.5786 16.8346 16.3345C17.0786 16.0904 17.0786 15.6947 16.8346 15.4506L16.2453 14.8614Z" fill="black"/>
<path d="M3.62502 10C3.62502 10.3452 3.3452 10.625 3.00002 10.625H2.16669C1.82151 10.625 1.54169 10.3452 1.54169 10C1.54169 9.65484 1.82151 9.37502 2.16669 9.37502H3.00002C3.3452 9.37502 3.62502 9.65484 3.62502 10Z" fill="black"/>
<path d="M5.63862 15.7452C5.88269 15.5012 5.88269 15.1054 5.63862 14.8614C5.39454 14.6173 4.99881 14.6173 4.75473 14.8614L4.16548 15.4506C3.9214 15.6947 3.9214 16.0904 4.16548 16.3345C4.40956 16.5786 4.80528 16.5786 5.04936 16.3345L5.63862 15.7452Z" fill="black"/>
</svg>